<?xml version="1.0" encoding="UTF-8"?>
<svg id="Layer_1" data-name="Layer 1" xmlns="http://www.w3.org/2000/svg" viewBox="0 0 468.4 92.56">
  <defs>
    <style>
      .cls-1 {
        isolation: isolate;
      }
    </style>
  </defs>
  <g id="Accolade" class="cls-1">
    <g class="cls-1">
      <path d="M34.14,4.26h18.48l29.5,82.94h-16.2l-6.62-19.82H27.12l-6.79,19.82H4.52L34.14,4.26ZM55.29,55.31l-3.9-11.69c-2.45-7.63-4.9-15.59-8.02-26.05-3.12,10.46-5.62,18.42-8.13,26.05l-4.01,11.69h24.05Z"/>
      <path d="M81.05,57.87c0-18.15,11.52-30.78,28.72-30.78,14.75,0,25.44,9.3,26.66,22.38h-13.75c-1.06-6.29-5.46-10.69-12.75-10.69-9.18,0-14.7,7.46-14.7,19.09s5.46,18.98,14.7,18.98c7.35,0,11.3-4.23,12.64-10.74h13.86c-1,12.86-11.8,22.43-26.66,22.43-17.2,0-28.72-12.52-28.72-30.67Z"/>
      <path d="M140.27,57.87c0-18.15,11.52-30.78,28.72-30.78,14.75,0,25.44,9.3,26.66,22.38h-13.75c-1.06-6.29-5.46-10.69-12.75-10.69-9.18,0-14.7,7.46-14.7,19.09s5.46,18.98,14.7,18.98c7.35,0,11.3-4.23,12.64-10.74h13.86c-1,12.86-11.8,22.43-26.66,22.43-17.2,0-28.72-12.52-28.72-30.67Z"/>
      <path d="M199.48,57.87c0-18.26,11.69-30.78,29-30.78s29,12.52,29,30.78-11.69,30.67-29,30.67-29-12.41-29-30.67ZM243.23,57.87c0-11.75-5.79-19.04-14.75-19.04s-14.81,7.24-14.81,19.04,5.73,18.93,14.81,18.93,14.75-7.24,14.75-18.93Z"/>
      <path d="M278.35,87.2h-14.03V4.26h14.03v82.94Z"/>
      <path d="M285.57,70.5c0-13.36,10.97-16.64,23.1-17.92,10.91-1.22,14.64-1.39,14.64-5.4v-.45c0-5.01-4.01-8.57-10.74-8.57s-11.41,3.56-11.8,8.52h-13.53c.67-11.69,10.24-19.43,25.61-19.43s24.38,7.63,24.38,19.87v40.08h-13.8v-8.29h-.22c-2.78,5.23-7.74,9.24-17.31,9.24-11.69,0-20.32-5.9-20.32-17.65ZM323.37,65.44v-6.35c-1.73,1.11-7.18,2-12.97,2.89-6.01.89-11.13,3.06-11.13,8.41,0,4.62,3.95,7.35,10.08,7.35,9.18,0,14.03-5.46,14.03-12.3Z"/>
      <path d="M344.06,57.76c0-18.09,10.24-30.5,25.33-30.5,7.63,0,13.92,3.06,17.7,9.52h.11V4.26h14.03v82.94h-13.8v-8.96h-.11c-3.67,6.79-10.13,10.13-17.81,10.13-15.36,0-25.44-12.3-25.44-30.62ZM387.98,57.76c0-11.41-6.01-18.87-15.2-18.87-8.68,0-14.53,6.74-14.53,18.87s5.84,18.87,14.53,18.87c9.18,0,15.2-7.4,15.2-18.87Z"/>
      <path d="M408.12,57.87c0-17.87,11.63-30.78,28.11-30.78s28.17,12.52,28.17,30.56v3.84h-42.53c.33,9.57,5.79,15.98,15.25,15.98,7.07,0,11.8-3.4,13.42-8.41h13.14c-2.23,11.52-13.14,19.48-26.89,19.48-17.65,0-28.67-12.86-28.67-30.67ZM450.93,51.8c-.89-8.41-6.35-13.58-14.47-13.58s-13.53,5.18-14.47,13.58h28.95Z"/>
    </g>
  </g>
</svg>